<svg width="26" height="26" viewBox="0 0 26 26" fill="none" xmlns="http://www.w3.org/2000/svg">
<path fill-rule="evenodd" clip-rule="evenodd" d="M13 0.5C6.1 0.5 0.5 6.1 0.5 13C0.5 19.9 6.1 25.5 13 25.5C19.9 25.5 25.5 19.9 25.5 13C25.5 6.1 19.9 0.5 13 0.5ZM6.83752 20.85C7.37502 19.725 10.65 18.625 13 18.625C15.35 18.625 18.6375 19.725 19.1625 20.85C17.4625 22.2 15.325 23 13 23C10.675 23 8.53752 22.2 6.83752 20.85ZM13 16.125C14.825 16.125 19.1625 16.8625 20.95 19.0375C22.225 17.3625 23 15.275 23 13C23 7.4875 18.5125 3 13 3C7.4875 3 3 7.4875 3 13C3 15.275 3.775 17.3625 5.05 19.0375C6.8375 16.8625 11.175 16.125 13 16.125ZM13 5.5C10.575 5.5 8.625 7.45 8.625 9.875C8.625 12.3 10.575 14.25 13 14.25C15.425 14.25 17.375 12.3 17.375 9.875C17.375 7.45 15.425 5.5 13 5.5ZM11.125 9.875C11.125 10.9125 11.9625 11.75 13 11.75C14.0375 11.75 14.875 10.9125 14.875 9.875C14.875 8.8375 14.0375 8 13 8C11.9625 8 11.125 8.8375 11.125 9.875Z" fill="black" fill-opacity="0.54"/>
</svg>
