<svg width="40" height="40" viewBox="0 0 40 40" fill="none" xmlns="http://www.w3.org/2000/svg">
<path fill-rule="evenodd" clip-rule="evenodd" d="M17.7679 34.0299V6.93167L9.29464 14.762H0V26.1906H9.29464L17.7679 34.0299ZM22.7767 29.3777C24.607 26.8867 25.7053 23.8152 25.7053 20.476C25.7053 17.1367 24.607 14.0652 22.7767 11.5742L20.9553 12.9402C22.5088 15.0474 23.4374 17.6456 23.4374 20.476C23.4374 23.2974 22.5088 25.9045 20.9553 28.0027L22.7767 29.3777V29.3777ZM28.7236 33.485C31.4022 29.851 33.0093 25.351 33.0093 20.476C33.0093 15.601 31.4022 11.11 28.7236 7.4671L26.9022 8.83317C29.304 12.0832 30.7415 16.11 30.7415 20.476C30.7415 24.8421 29.304 28.86 26.9022 32.11L28.7236 33.485V33.485ZM32.5629 4.70825C35.8129 9.11004 37.7325 14.5743 37.7325 20.4761C37.7325 26.3779 35.8129 31.8333 32.5629 36.244L34.3932 37.619C37.9111 32.8333 40.0004 26.9047 40.0004 20.4761C40.0004 14.0475 37.9111 8.11897 34.3932 3.33325L32.5629 4.70825V4.70825Z" fill="#447BD4"/>
<mask id="mask0" mask-type="alpha" maskUnits="userSpaceOnUse" x="0" y="3" width="41" height="35">
<path fill-rule="evenodd" clip-rule="evenodd" d="M17.7679 34.0299V6.93167L9.29464 14.762H0V26.1906H9.29464L17.7679 34.0299ZM22.7767 29.3777C24.607 26.8867 25.7053 23.8152 25.7053 20.476C25.7053 17.1367 24.607 14.0652 22.7767 11.5742L20.9553 12.9402C22.5088 15.0474 23.4374 17.6456 23.4374 20.476C23.4374 23.2974 22.5088 25.9045 20.9553 28.0027L22.7767 29.3777V29.3777ZM28.7236 33.485C31.4022 29.851 33.0093 25.351 33.0093 20.476C33.0093 15.601 31.4022 11.11 28.7236 7.4671L26.9022 8.83317C29.304 12.0832 30.7415 16.11 30.7415 20.476C30.7415 24.8421 29.304 28.86 26.9022 32.11L28.7236 33.485V33.485ZM32.5629 4.70825C35.8129 9.11004 37.7325 14.5743 37.7325 20.4761C37.7325 26.3779 35.8129 31.8333 32.5629 36.244L34.3932 37.619C37.9111 32.8333 40.0004 26.9047 40.0004 20.4761C40.0004 14.0475 37.9111 8.11897 34.3932 3.33325L32.5629 4.70825V4.70825Z" fill="white"/>
</mask>
<g mask="url(#mask0)">
<rect width="40" height="40" fill="#447BD4"/>
</g>
</svg>
