<svg width="30" height="18" viewBox="0 0 30 18" fill="none" xmlns="http://www.w3.org/2000/svg">
<path fill-rule="evenodd" clip-rule="evenodd" d="M20 17.75H27.5V12.75H30V5.25H16.65C15.2125 2.225 12.15 0.25 8.75 0.25C3.925 0.25 0 4.175 0 9C0 13.825 3.925 17.75 8.75 17.75C12.15 17.75 15.225 15.775 16.65 12.75H20V17.75ZM25 15.25H22.5V10.25H14.925L14.6375 11.0875C13.7625 13.575 11.3875 15.25 8.75 15.25C5.3 15.25 2.5 12.45 2.5 9C2.5 5.55 5.3 2.75 8.75 2.75C11.3875 2.75 13.7625 4.425 14.6375 6.9125L14.925 7.75H27.5V10.25H25V15.25ZM8.75 12.75C6.6875 12.75 5 11.0625 5 9C5 6.9375 6.6875 5.25 8.75 5.25C10.8125 5.25 12.5 6.9375 12.5 9C12.5 11.0625 10.8125 12.75 8.75 12.75ZM7.5 9C7.5 8.3125 8.0625 7.75 8.75 7.75C9.4375 7.75 10 8.3125 10 9C10 9.6875 9.4375 10.25 8.75 10.25C8.0625 10.25 7.5 9.6875 7.5 9Z" fill="black" fill-opacity="0.54"/>
</svg>
